<svg id="visual" viewBox="0 0 900 600" width="900" height="600" xmlns="http://www.w3.org/2000/svg" xmlns:xlink="http://www.w3.org/1999/xlink" version="1.1"><rect x="0" y="0" width="900" height="600" fill="#FFFFFF"></rect><g transform="translate(440.95669168015354 290.0914119429407)"><path d="M150.8 -172.7C200 -138.4 247.7 -95.2 259.2 -43.7C270.6 7.8 245.7 67.6 211.9 118.6C178 169.6 135.2 211.6 81.6 236.6C27.9 261.5 -36.5 269.4 -78.9 242.7C-121.4 216.1 -141.9 154.9 -171.7 100.5C-201.5 46.1 -240.6 -1.6 -243.7 -53.3C-246.9 -104.9 -214.1 -160.5 -167.5 -195.2C-120.8 -230 -60.4 -244 -4.8 -238.3C50.8 -232.5 101.6 -207 150.8 -172.7" fill="#001122"></path></g></svg>