<svg id="visual" viewBox="0 0 900 600" width="900" height="600" xmlns="http://www.w3.org/2000/svg" xmlns:xlink="http://www.w3.org/1999/xlink" version="1.1"><rect x="0" y="0" width="900" height="600" fill="#FFFFFF"></rect><g transform="translate(463.03535390731736 280.57594254713865)"><path d="M114.8 -136.7C145.5 -111 165.1 -71.8 180 -26C195 19.8 205.3 72.1 189.8 119.4C174.2 166.6 132.8 208.8 86 217.6C39.3 226.5 -12.7 202 -71.2 185.2C-129.7 168.4 -194.8 159.2 -215.5 124C-236.2 88.9 -212.7 27.8 -194 -26.6C-175.3 -81 -161.6 -128.6 -130.1 -154.2C-98.6 -179.8 -49.3 -183.4 -3.6 -179.1C42 -174.7 84 -162.4 114.8 -136.7" fill="#001122"></path></g></svg>